<mxfile host="Electron" agent="Mozilla/5.0 (Windows NT 10.0; Win64; x64) AppleWebKit/537.36 (KHTML, like Gecko) draw.io/26.0.9 Chrome/128.0.6613.186 Electron/32.2.5 Safari/537.36" version="26.0.9">
  <diagram name="Page-1" id="dM1VX_bRIBqYVcTAixvD">
    <mxGraphModel dx="662" dy="464" grid="0" gridSize="10" guides="1" tooltips="1" connect="1" arrows="1" fold="1" page="1" pageScale="1" pageWidth="850" pageHeight="1100" math="1" shadow="0">
      <root>
        <mxCell id="0" />
        <mxCell id="1" parent="0" />
        <mxCell id="P2xz3JzIOTPGkaxV-it4-53" value="Observer" style="rounded=1;arcSize=10;dashed=1;dashPattern=8 4;strokeWidth=2;fontStyle=1;align=left;verticalAlign=bottom;strokeColor=light-dark(#8b4b4b, #ededed);fillColor=none;" vertex="1" parent="1">
          <mxGeometry x="297.5" y="350" width="342.5" height="170" as="geometry" />
        </mxCell>
        <mxCell id="P2xz3JzIOTPGkaxV-it4-1" value="$$r$$" style="text;html=1;align=center;verticalAlign=middle;whiteSpace=wrap;rounded=0;" vertex="1" parent="1">
          <mxGeometry x="146" y="235" width="30" height="30" as="geometry" />
        </mxCell>
        <mxCell id="P2xz3JzIOTPGkaxV-it4-2" value="" style="endArrow=classic;html=1;rounded=0;exitX=1;exitY=0.5;exitDx=0;exitDy=0;" edge="1" parent="1" source="P2xz3JzIOTPGkaxV-it4-1" target="P2xz3JzIOTPGkaxV-it4-3">
          <mxGeometry width="50" height="50" relative="1" as="geometry">
            <mxPoint x="266" y="325" as="sourcePoint" />
            <mxPoint x="236" y="250" as="targetPoint" />
          </mxGeometry>
        </mxCell>
        <mxCell id="P2xz3JzIOTPGkaxV-it4-48" style="edgeStyle=orthogonalEdgeStyle;rounded=0;orthogonalLoop=1;jettySize=auto;html=1;exitX=1;exitY=0.5;exitDx=0;exitDy=0;entryX=0;entryY=0.5;entryDx=0;entryDy=0;" edge="1" parent="1" source="P2xz3JzIOTPGkaxV-it4-3" target="P2xz3JzIOTPGkaxV-it4-23">
          <mxGeometry relative="1" as="geometry" />
        </mxCell>
        <mxCell id="P2xz3JzIOTPGkaxV-it4-3" value="" style="ellipse;whiteSpace=wrap;html=1;aspect=fixed;" vertex="1" parent="1">
          <mxGeometry x="216" y="238.75" width="22.5" height="22.5" as="geometry" />
        </mxCell>
        <mxCell id="P2xz3JzIOTPGkaxV-it4-4" value="" style="endArrow=classic;html=1;rounded=0;exitX=1;exitY=0.5;exitDx=0;exitDy=0;entryX=0;entryY=0.5;entryDx=0;entryDy=0;" edge="1" parent="1" source="P2xz3JzIOTPGkaxV-it4-3" target="P2xz3JzIOTPGkaxV-it4-5">
          <mxGeometry width="50" height="50" relative="1" as="geometry">
            <mxPoint x="220" y="325" as="sourcePoint" />
            <mxPoint x="310" y="250" as="targetPoint" />
          </mxGeometry>
        </mxCell>
        <mxCell id="P2xz3JzIOTPGkaxV-it4-7" value="" style="edgeStyle=orthogonalEdgeStyle;rounded=0;orthogonalLoop=1;jettySize=auto;html=1;" edge="1" parent="1" source="P2xz3JzIOTPGkaxV-it4-5" target="P2xz3JzIOTPGkaxV-it4-6">
          <mxGeometry relative="1" as="geometry" />
        </mxCell>
        <mxCell id="P2xz3JzIOTPGkaxV-it4-5" value="H" style="whiteSpace=wrap;html=1;aspect=fixed;" vertex="1" parent="1">
          <mxGeometry x="320" y="235" width="30" height="30" as="geometry" />
        </mxCell>
        <mxCell id="P2xz3JzIOTPGkaxV-it4-10" value="" style="edgeStyle=orthogonalEdgeStyle;rounded=0;orthogonalLoop=1;jettySize=auto;html=1;" edge="1" parent="1" source="P2xz3JzIOTPGkaxV-it4-6" target="P2xz3JzIOTPGkaxV-it4-9">
          <mxGeometry relative="1" as="geometry" />
        </mxCell>
        <mxCell id="P2xz3JzIOTPGkaxV-it4-6" value="" style="ellipse;whiteSpace=wrap;html=1;aspect=fixed;" vertex="1" parent="1">
          <mxGeometry x="400" y="238.75" width="22.5" height="22.5" as="geometry" />
        </mxCell>
        <mxCell id="P2xz3JzIOTPGkaxV-it4-17" style="edgeStyle=orthogonalEdgeStyle;rounded=0;orthogonalLoop=1;jettySize=auto;html=1;exitX=0.5;exitY=0;exitDx=0;exitDy=0;" edge="1" parent="1" source="P2xz3JzIOTPGkaxV-it4-8">
          <mxGeometry relative="1" as="geometry">
            <mxPoint x="580.2857142857142" y="250" as="targetPoint" />
          </mxGeometry>
        </mxCell>
        <mxCell id="P2xz3JzIOTPGkaxV-it4-18" style="edgeStyle=orthogonalEdgeStyle;rounded=0;orthogonalLoop=1;jettySize=auto;html=1;exitX=0.5;exitY=0;exitDx=0;exitDy=0;" edge="1" parent="1">
          <mxGeometry relative="1" as="geometry">
            <mxPoint x="1050" y="365" as="targetPoint" />
            <mxPoint x="1000" y="365" as="sourcePoint" />
          </mxGeometry>
        </mxCell>
        <mxCell id="P2xz3JzIOTPGkaxV-it4-21" style="edgeStyle=orthogonalEdgeStyle;rounded=0;orthogonalLoop=1;jettySize=auto;html=1;exitX=0.5;exitY=0;exitDx=0;exitDy=0;" edge="1" parent="1" source="P2xz3JzIOTPGkaxV-it4-8">
          <mxGeometry relative="1" as="geometry">
            <mxPoint x="650" y="249.79310344827593" as="targetPoint" />
          </mxGeometry>
        </mxCell>
        <mxCell id="P2xz3JzIOTPGkaxV-it4-8" value="C" style="whiteSpace=wrap;html=1;aspect=fixed;direction=south;" vertex="1" parent="1">
          <mxGeometry x="550" y="235" width="30" height="30" as="geometry" />
        </mxCell>
        <mxCell id="P2xz3JzIOTPGkaxV-it4-11" value="" style="edgeStyle=orthogonalEdgeStyle;rounded=0;orthogonalLoop=1;jettySize=auto;html=1;" edge="1" parent="1" source="P2xz3JzIOTPGkaxV-it4-9" target="P2xz3JzIOTPGkaxV-it4-8">
          <mxGeometry relative="1" as="geometry" />
        </mxCell>
        <mxCell id="P2xz3JzIOTPGkaxV-it4-9" value="Z&lt;sup&gt;-1&lt;/sup&gt;" style="triangle;whiteSpace=wrap;html=1;align=left;" vertex="1" parent="1">
          <mxGeometry x="460" y="230" width="40" height="40" as="geometry" />
        </mxCell>
        <mxCell id="P2xz3JzIOTPGkaxV-it4-12" value="G" style="whiteSpace=wrap;html=1;aspect=fixed;" vertex="1" parent="1">
          <mxGeometry x="460" y="305" width="30" height="30" as="geometry" />
        </mxCell>
        <mxCell id="P2xz3JzIOTPGkaxV-it4-14" value="" style="edgeStyle=orthogonalEdgeStyle;rounded=0;orthogonalLoop=1;jettySize=auto;html=1;entryX=1;entryY=0.5;entryDx=0;entryDy=0;exitX=1;exitY=0.5;exitDx=0;exitDy=0;" edge="1" parent="1" source="P2xz3JzIOTPGkaxV-it4-8" target="P2xz3JzIOTPGkaxV-it4-12">
          <mxGeometry relative="1" as="geometry">
            <mxPoint x="530" y="335" as="sourcePoint" />
            <mxPoint x="580" y="335" as="targetPoint" />
            <Array as="points">
              <mxPoint x="565" y="320" />
            </Array>
          </mxGeometry>
        </mxCell>
        <mxCell id="P2xz3JzIOTPGkaxV-it4-15" value="" style="edgeStyle=orthogonalEdgeStyle;rounded=0;orthogonalLoop=1;jettySize=auto;html=1;entryX=0.5;entryY=1;entryDx=0;entryDy=0;exitX=0;exitY=0.5;exitDx=0;exitDy=0;" edge="1" parent="1" source="P2xz3JzIOTPGkaxV-it4-12" target="P2xz3JzIOTPGkaxV-it4-6">
          <mxGeometry relative="1" as="geometry">
            <mxPoint x="575" y="330" as="sourcePoint" />
            <mxPoint x="500" y="330" as="targetPoint" />
            <Array as="points">
              <mxPoint x="411" y="320" />
            </Array>
          </mxGeometry>
        </mxCell>
        <mxCell id="P2xz3JzIOTPGkaxV-it4-19" value="$$\hat{y}$$" style="text;html=1;align=center;verticalAlign=middle;whiteSpace=wrap;rounded=0;" vertex="1" parent="1">
          <mxGeometry x="1450" y="710" width="20" height="20" as="geometry" />
        </mxCell>
        <mxCell id="P2xz3JzIOTPGkaxV-it4-22" value="" style="edgeStyle=orthogonalEdgeStyle;rounded=0;orthogonalLoop=1;jettySize=auto;html=1;" edge="1" parent="1" source="P2xz3JzIOTPGkaxV-it4-23" target="P2xz3JzIOTPGkaxV-it4-25">
          <mxGeometry relative="1" as="geometry" />
        </mxCell>
        <mxCell id="P2xz3JzIOTPGkaxV-it4-23" value="H" style="whiteSpace=wrap;html=1;aspect=fixed;" vertex="1" parent="1">
          <mxGeometry x="320" y="415" width="30" height="30" as="geometry" />
        </mxCell>
        <mxCell id="P2xz3JzIOTPGkaxV-it4-24" value="" style="edgeStyle=orthogonalEdgeStyle;rounded=0;orthogonalLoop=1;jettySize=auto;html=1;" edge="1" parent="1" source="P2xz3JzIOTPGkaxV-it4-25" target="P2xz3JzIOTPGkaxV-it4-29">
          <mxGeometry relative="1" as="geometry" />
        </mxCell>
        <mxCell id="P2xz3JzIOTPGkaxV-it4-25" value="" style="ellipse;whiteSpace=wrap;html=1;aspect=fixed;" vertex="1" parent="1">
          <mxGeometry x="400" y="418.75" width="22.5" height="22.5" as="geometry" />
        </mxCell>
        <mxCell id="P2xz3JzIOTPGkaxV-it4-26" style="edgeStyle=orthogonalEdgeStyle;rounded=0;orthogonalLoop=1;jettySize=auto;html=1;exitX=0.5;exitY=0;exitDx=0;exitDy=0;" edge="1" parent="1" source="P2xz3JzIOTPGkaxV-it4-27">
          <mxGeometry relative="1" as="geometry">
            <mxPoint x="580.2857142857142" y="430" as="targetPoint" />
          </mxGeometry>
        </mxCell>
        <mxCell id="P2xz3JzIOTPGkaxV-it4-38" style="edgeStyle=orthogonalEdgeStyle;rounded=0;orthogonalLoop=1;jettySize=auto;html=1;exitX=0.5;exitY=0;exitDx=0;exitDy=0;entryX=0.5;entryY=1;entryDx=0;entryDy=0;" edge="1" parent="1" source="P2xz3JzIOTPGkaxV-it4-27" target="P2xz3JzIOTPGkaxV-it4-34">
          <mxGeometry relative="1" as="geometry" />
        </mxCell>
        <mxCell id="P2xz3JzIOTPGkaxV-it4-39" style="edgeStyle=orthogonalEdgeStyle;rounded=0;orthogonalLoop=1;jettySize=auto;html=1;exitX=0.5;exitY=0;exitDx=0;exitDy=0;" edge="1" parent="1" source="P2xz3JzIOTPGkaxV-it4-27">
          <mxGeometry relative="1" as="geometry">
            <mxPoint x="680" y="430" as="targetPoint" />
          </mxGeometry>
        </mxCell>
        <mxCell id="P2xz3JzIOTPGkaxV-it4-27" value="C" style="whiteSpace=wrap;html=1;aspect=fixed;direction=south;" vertex="1" parent="1">
          <mxGeometry x="550" y="415" width="30" height="30" as="geometry" />
        </mxCell>
        <mxCell id="P2xz3JzIOTPGkaxV-it4-29" value="Z&lt;sup&gt;-1&lt;/sup&gt;" style="triangle;whiteSpace=wrap;html=1;align=left;" vertex="1" parent="1">
          <mxGeometry x="460" y="410" width="40" height="40" as="geometry" />
        </mxCell>
        <mxCell id="P2xz3JzIOTPGkaxV-it4-30" value="G" style="whiteSpace=wrap;html=1;aspect=fixed;" vertex="1" parent="1">
          <mxGeometry x="460" y="485" width="30" height="30" as="geometry" />
        </mxCell>
        <mxCell id="P2xz3JzIOTPGkaxV-it4-31" value="" style="edgeStyle=orthogonalEdgeStyle;rounded=0;orthogonalLoop=1;jettySize=auto;html=1;entryX=1;entryY=0.5;entryDx=0;entryDy=0;" edge="1" parent="1" target="P2xz3JzIOTPGkaxV-it4-30">
          <mxGeometry relative="1" as="geometry">
            <mxPoint x="530" y="430" as="sourcePoint" />
            <mxPoint x="580" y="515" as="targetPoint" />
            <Array as="points">
              <mxPoint x="530" y="500" />
            </Array>
          </mxGeometry>
        </mxCell>
        <mxCell id="P2xz3JzIOTPGkaxV-it4-32" value="" style="edgeStyle=orthogonalEdgeStyle;rounded=0;orthogonalLoop=1;jettySize=auto;html=1;entryX=0.5;entryY=1;entryDx=0;entryDy=0;exitX=0;exitY=0.5;exitDx=0;exitDy=0;" edge="1" parent="1" source="P2xz3JzIOTPGkaxV-it4-30" target="P2xz3JzIOTPGkaxV-it4-25">
          <mxGeometry relative="1" as="geometry">
            <mxPoint x="575" y="510" as="sourcePoint" />
            <mxPoint x="500" y="510" as="targetPoint" />
            <Array as="points">
              <mxPoint x="411" y="500" />
            </Array>
          </mxGeometry>
        </mxCell>
        <mxCell id="P2xz3JzIOTPGkaxV-it4-37" style="edgeStyle=orthogonalEdgeStyle;rounded=0;orthogonalLoop=1;jettySize=auto;html=1;exitX=0;exitY=0.5;exitDx=0;exitDy=0;entryX=0.5;entryY=0;entryDx=0;entryDy=0;" edge="1" parent="1" source="P2xz3JzIOTPGkaxV-it4-33" target="P2xz3JzIOTPGkaxV-it4-25">
          <mxGeometry relative="1" as="geometry" />
        </mxCell>
        <mxCell id="P2xz3JzIOTPGkaxV-it4-33" value="L" style="whiteSpace=wrap;html=1;aspect=fixed;" vertex="1" parent="1">
          <mxGeometry x="460" y="360" width="30" height="30" as="geometry" />
        </mxCell>
        <mxCell id="P2xz3JzIOTPGkaxV-it4-35" value="" style="edgeStyle=orthogonalEdgeStyle;rounded=0;orthogonalLoop=1;jettySize=auto;html=1;startArrow=classic;startFill=1;endArrow=none;" edge="1" parent="1" source="P2xz3JzIOTPGkaxV-it4-34">
          <mxGeometry relative="1" as="geometry">
            <mxPoint x="619" y="250" as="targetPoint" />
          </mxGeometry>
        </mxCell>
        <mxCell id="P2xz3JzIOTPGkaxV-it4-36" value="" style="edgeStyle=orthogonalEdgeStyle;rounded=0;orthogonalLoop=1;jettySize=auto;html=1;" edge="1" parent="1" source="P2xz3JzIOTPGkaxV-it4-34" target="P2xz3JzIOTPGkaxV-it4-33">
          <mxGeometry relative="1" as="geometry" />
        </mxCell>
        <mxCell id="P2xz3JzIOTPGkaxV-it4-34" value="" style="ellipse;whiteSpace=wrap;html=1;aspect=fixed;" vertex="1" parent="1">
          <mxGeometry x="607.5" y="363.75" width="22.5" height="22.5" as="geometry" />
        </mxCell>
        <mxCell id="P2xz3JzIOTPGkaxV-it4-40" value="y" style="text;html=1;align=center;verticalAlign=middle;whiteSpace=wrap;rounded=0;" vertex="1" parent="1">
          <mxGeometry x="640" y="230" width="20" height="20" as="geometry" />
        </mxCell>
        <mxCell id="P2xz3JzIOTPGkaxV-it4-42" value="" style="edgeStyle=orthogonalEdgeStyle;rounded=0;orthogonalLoop=1;jettySize=auto;html=1;entryX=0.5;entryY=1;entryDx=0;entryDy=0;" edge="1" parent="1" source="P2xz3JzIOTPGkaxV-it4-29" target="P2xz3JzIOTPGkaxV-it4-27">
          <mxGeometry relative="1" as="geometry">
            <mxPoint x="500" y="430" as="sourcePoint" />
            <mxPoint x="550" y="430" as="targetPoint" />
          </mxGeometry>
        </mxCell>
        <mxCell id="P2xz3JzIOTPGkaxV-it4-41" value="$$\hat{x}$$" style="text;html=1;align=center;verticalAlign=middle;whiteSpace=wrap;rounded=0;" vertex="1" parent="1">
          <mxGeometry x="500" y="410" width="20" height="20" as="geometry" />
        </mxCell>
        <mxCell id="P2xz3JzIOTPGkaxV-it4-45" style="edgeStyle=orthogonalEdgeStyle;rounded=0;orthogonalLoop=1;jettySize=auto;html=1;exitX=1;exitY=0.5;exitDx=0;exitDy=0;endArrow=none;startFill=1;startArrow=classic;" edge="1" parent="1" source="P2xz3JzIOTPGkaxV-it4-44">
          <mxGeometry relative="1" as="geometry">
            <mxPoint x="530" y="430" as="targetPoint" />
          </mxGeometry>
        </mxCell>
        <mxCell id="P2xz3JzIOTPGkaxV-it4-46" style="edgeStyle=orthogonalEdgeStyle;rounded=0;orthogonalLoop=1;jettySize=auto;html=1;exitX=0;exitY=0.5;exitDx=0;exitDy=0;entryX=0.5;entryY=1;entryDx=0;entryDy=0;" edge="1" parent="1" source="P2xz3JzIOTPGkaxV-it4-44" target="P2xz3JzIOTPGkaxV-it4-3">
          <mxGeometry relative="1" as="geometry" />
        </mxCell>
        <mxCell id="P2xz3JzIOTPGkaxV-it4-44" value="-K" style="whiteSpace=wrap;html=1;aspect=fixed;" vertex="1" parent="1">
          <mxGeometry x="370" y="532" width="30" height="30" as="geometry" />
        </mxCell>
        <mxCell id="P2xz3JzIOTPGkaxV-it4-47" value="$$u$$" style="text;html=1;align=center;verticalAlign=middle;whiteSpace=wrap;rounded=0;" vertex="1" parent="1">
          <mxGeometry x="250" y="230" width="20" height="20" as="geometry" />
        </mxCell>
        <mxCell id="P2xz3JzIOTPGkaxV-it4-52" value="Plant" style="rounded=1;arcSize=10;dashed=1;strokeColor=#F59D56;fillColor=none;gradientColor=none;dashPattern=8 4;strokeWidth=2;fontStyle=1;align=left;verticalAlign=bottom;" vertex="1" parent="1">
          <mxGeometry x="300" y="220" width="310" height="120" as="geometry" />
        </mxCell>
        <mxCell id="P2xz3JzIOTPGkaxV-it4-54" value="$$\hat{y}$$" style="text;html=1;align=center;verticalAlign=middle;whiteSpace=wrap;rounded=0;" vertex="1" parent="1">
          <mxGeometry x="648" y="408" width="20" height="20" as="geometry" />
        </mxCell>
      </root>
    </mxGraphModel>
  </diagram>
</mxfile>
